<svg width="51" height="50" viewBox="0 0 51 50" fill="none" xmlns="http://www.w3.org/2000/svg">
<g clip-path="url(#clip0_175_242)">
<path d="M25.333 50C39.1401 50 50.333 38.8071 50.333 25C50.333 11.1929 39.1401 0 25.333 0C11.5259 0 0.333008 11.1929 0.333008 25C0.333008 38.8071 11.5259 50 25.333 50Z" fill="#F0F0F0"/>
<path d="M19.8985 21.7392H50.1216C48.5236 9.47285 38.0351 0 25.3332 0C23.4665 0 21.6484 0.206348 19.8984 0.594238V21.7392H19.8985Z" fill="#D80027"/>
<path d="M13.3768 21.7394V3.04004C6.51221 6.78555 1.59795 13.6558 0.544922 21.7395H13.3768V21.7394Z" fill="#D80027"/>
<path d="M13.3767 28.2607H0.544922C1.59795 36.3444 6.51221 43.2146 13.3768 46.9601L13.3767 28.2607Z" fill="#D80027"/>
<path d="M19.8984 28.2608V49.4057C21.6484 49.7936 23.4665 49.9999 25.3332 49.9999C38.0351 49.9999 48.5236 40.5271 50.1216 28.2607H19.8984V28.2608Z" fill="#D80027"/>
</g>
<defs>
<clipPath id="clip0_175_242">
<rect width="50" height="50" fill="white" transform="translate(0.333008)"/>
</clipPath>
</defs>
</svg>
