<svg width="51" height="50" viewBox="0 0 51 50" fill="none" xmlns="http://www.w3.org/2000/svg">
<g clip-path="url(#clip0_175_242)">
<path d="M25.333 50C39.1401 50 50.333 38.8071 50.333 25C50.333 11.1929 39.1401 0 25.333 0C11.5259 0 0.333008 11.1929 0.333008 25C0.333008 38.8071 11.5259 50 25.333 50Z" fill="#6DA544"/>
<path d="M14.4629 29.8916C14.4629 31.6925 15.9229 33.1524 17.7237 33.1524H27.5063C27.5063 34.6532 28.7229 35.8698 30.2237 35.8698H33.4846C34.9854 35.8698 36.202 34.6532 36.202 33.1524V29.8916H14.4629Z" fill="#F0F0F0"/>
<path d="M36.4737 14.1309V21.7395C36.4737 22.9383 35.4985 23.9135 34.2998 23.9135V27.1743C37.2966 27.1743 39.7346 24.7362 39.7346 21.7395V14.1309H36.4737Z" fill="#F0F0F0"/>
<path d="M13.1046 21.7395C13.1046 22.9383 12.1294 23.9135 10.9307 23.9135V27.1743C13.9274 27.1743 16.3654 24.7362 16.3654 21.7395V14.1309H13.1046V21.7395Z" fill="#F0F0F0"/>
<path d="M31.583 14.1309H34.8438V21.7395H31.583V14.1309Z" fill="#F0F0F0"/>
<path d="M26.6917 18.4787C26.6917 18.7784 26.4479 19.0222 26.1482 19.0222C25.8486 19.0222 25.6048 18.7783 25.6048 18.4787V14.1309H22.3439V18.4787C22.3439 18.7784 22.1001 19.0222 21.8005 19.0222C21.5009 19.0222 21.257 18.7783 21.257 18.4787V14.1309H17.9961V18.4787C17.9961 20.5765 19.7027 22.2831 21.8005 22.2831C22.6084 22.2831 23.3576 22.0292 23.9744 21.5979C24.5911 22.0291 25.3404 22.2831 26.1483 22.2831C26.311 22.2831 26.471 22.2717 26.6283 22.2517C26.3973 23.2037 25.5398 23.9135 24.5179 23.9135V27.1743C27.5146 27.1743 29.9526 24.7362 29.9526 21.7395V18.4787V14.1309H26.6918V18.4787H26.6917Z" fill="#F0F0F0"/>
<path d="M17.9961 23.9131H22.8874V27.1739H17.9961V23.9131Z" fill="#F0F0F0"/>
</g>
<defs>
<clipPath id="clip0_175_242">
<rect width="50" height="50" fill="white" transform="translate(0.333008)"/>
</clipPath>
</defs>
</svg>
