<svg width="51" height="50" viewBox="0 0 51 50" fill="none" xmlns="http://www.w3.org/2000/svg">
<g clip-path="url(#clip0_175_242)">
<path d="M25.333 50C39.1401 50 50.333 38.8071 50.333 25C50.333 11.1929 39.1401 0 25.333 0C11.5259 0 0.333008 11.1929 0.333008 25C0.333008 38.8071 11.5259 50 25.333 50Z" fill="#F0F0F0"/>
<path d="M33.4528 18.4786H30.1819C30.209 18.8381 30.2243 19.2008 30.2243 19.5655C30.2243 21.9839 29.6198 24.3279 28.566 25.9965C28.2409 26.5111 27.6946 27.2379 26.9634 27.7281V18.4785H23.7025V27.7281C22.9714 27.2379 22.425 26.5112 22.0999 25.9965C21.046 24.3279 20.4416 21.9839 20.4416 19.5655C20.4416 19.2008 20.457 18.838 20.484 18.4786H17.2131C17.1921 18.8363 17.1807 19.1986 17.1807 19.5655C17.1807 26.2702 20.7615 31.5221 25.3328 31.5221C29.9041 31.5221 33.485 26.2702 33.485 19.5655C33.4852 19.1986 33.4737 18.8363 33.4528 18.4786V18.4786Z" fill="#D80027"/>
<path d="M10.6589 11.9565H13.9197V14.1305H17.1806V11.9565H20.4414V14.1305H23.7022V11.9565H26.9631V14.1305H30.2239V11.9565H33.4848V14.1305H36.7456V11.9565H40.0064V14.1305H47.8519C43.8084 5.76807 35.2442 0 25.3328 0C15.4214 0 6.85723 5.76807 2.81348 14.1305H10.6589V11.9565Z" fill="#6DA544"/>
<path d="M40.0067 35.8691V38.0431H36.7459V35.8691H33.4851V38.0431H30.2242V35.8691H26.9634V38.0431H23.7025V35.8691H20.4417V38.0431H17.1809V35.8691H13.9197V38.0431H10.6589V35.8691H2.81348C6.85723 44.2315 15.4213 49.9996 25.3328 49.9996C35.2443 49.9996 43.8084 44.2315 47.8521 35.8691H40.0067Z" fill="#D80027"/>
</g>
<defs>
<clipPath id="clip0_175_242">
<rect width="50" height="50" fill="white" transform="translate(0.333008)"/>
</clipPath>
</defs>
</svg>
