<svg width="51" height="50" viewBox="0 0 51 50" fill="none" xmlns="http://www.w3.org/2000/svg">
<g clip-path="url(#clip0_175_242)">
<path d="M50.333 25.0004C50.333 21.9424 49.7829 19.013 48.778 16.3048L25.333 15.2178L1.88799 16.3047C0.883106 19.013 0.333008 21.9424 0.333008 25.0004C0.333008 28.0584 0.883106 30.9878 1.88799 33.696L25.333 34.783L48.778 33.6961C49.7829 30.9878 50.333 28.0584 50.333 25.0004Z" fill="#F0F0F0"/>
<path d="M25.3327 49.9997C36.0818 49.9997 45.2454 43.2153 48.7777 33.6953H1.8877C5.42002 43.2153 14.5836 49.9997 25.3327 49.9997Z" fill="#0052B4"/>
<path d="M1.8877 16.3044H48.7778C45.2454 6.78437 36.0818 0 25.3327 0C14.5836 0 5.42002 6.78437 1.8877 16.3044V16.3044Z" fill="#D80027"/>
<path d="M31.8547 17.391H27.5068L28.2315 11.9562L31.13 9.78223L34.0285 11.9562V16.304L31.8547 17.391Z" fill="#338AF3"/>
<path d="M18.8115 17.391H23.1594L22.4347 11.9562L19.5361 9.78223L16.6377 11.9562V16.304L18.8115 17.391Z" fill="#338AF3"/>
<path d="M28.2318 17.391H22.4346V11.9562L25.3332 9.78223L28.2318 11.9562V17.391Z" fill="#0052B4"/>
<path d="M16.6377 16.3047V28.2611C16.6377 31.1081 18.0129 33.6399 20.134 35.2272L21.6558 34.8464L23.5761 36.7782C24.1439 36.8952 24.7315 36.9568 25.3334 36.9568C25.932 36.9568 26.5167 36.896 27.0815 36.7802L29.2736 34.955L30.5326 35.2236C32.6528 33.6365 34.029 31.1073 34.029 28.2611V16.3047H16.6377Z" fill="#F0F0F0"/>
<path d="M16.6377 16.3047H20.1159V19.7829H16.6377V16.3047Z" fill="#D80027"/>
<path d="M23.5938 16.3047H27.072V19.7829H23.5938V16.3047Z" fill="#D80027"/>
<path d="M30.5508 16.3047H34.029V19.7829H30.5508V16.3047Z" fill="#D80027"/>
<path d="M20.1162 19.7832H23.5944V23.2614H20.1162V19.7832Z" fill="#D80027"/>
<path d="M27.0723 19.7832H30.5505V23.2614H27.0723V19.7832Z" fill="#D80027"/>
<path d="M16.6377 23.2598H20.1159V26.738H16.6377V23.2598Z" fill="#D80027"/>
<path d="M20.1162 26.7383H23.5944V30.2165H20.1162V26.7383Z" fill="#D80027"/>
<path d="M23.5938 23.2598H27.072V26.738H23.5938V23.2598Z" fill="#D80027"/>
<path d="M30.5508 23.2598H34.029V26.738H30.5508V23.2598Z" fill="#D80027"/>
<path d="M27.0723 26.7383H30.5505V30.2165H27.0723V26.7383Z" fill="#D80027"/>
<path d="M23.5938 30.2168H27.072V33.695H23.5938V30.2168Z" fill="#D80027"/>
<path d="M20.1161 30.2168H16.8623C17.1607 31.5098 17.7475 32.6929 18.552 33.695H20.1161V30.2168Z" fill="#D80027"/>
<path d="M30.5508 33.695H32.1148C32.9195 32.6929 33.5061 31.5097 33.8045 30.2168H30.5508V33.695Z" fill="#D80027"/>
<path d="M20.1162 33.6953V35.213C21.1278 35.9742 22.3101 36.52 23.5944 36.7819V33.6953H20.1162Z" fill="#D80027"/>
<path d="M27.0723 33.6953V36.7819C28.3567 36.5202 29.5389 35.9742 30.5505 35.213V33.6953H27.0723Z" fill="#D80027"/>
</g>
<defs>
<clipPath id="clip0_175_242">
<rect width="50" height="50" fill="white" transform="translate(0.333008)"/>
</clipPath>
</defs>
</svg>
