<svg width="51" height="50" viewBox="0 0 51 50" fill="none" xmlns="http://www.w3.org/2000/svg">
<g clip-path="url(#clip0_175_242)">
<path d="M36.202 2.48066C32.9153 0.891406 29.228 0 25.3325 0C21.437 0 17.7497 0.891406 14.463 2.48066L12.2891 25L14.463 47.5193C17.7497 49.1086 21.437 50 25.3325 50C29.228 50 32.9153 49.1086 36.202 47.5193L38.376 25L36.202 2.48066Z" fill="#FFDA44"/>
<path d="M25.3324 16.3047L27.4906 22.9473H34.4758L28.825 27.053L30.9833 33.6959L25.3324 29.5904L19.6815 33.6959L21.8402 27.053L16.1895 22.9473H23.1741L25.3324 16.3047Z" fill="#496E2D"/>
<path d="M14.4635 2.48145C6.10117 6.5251 0.333008 15.0885 0.333008 24.9999C0.333008 34.9113 6.10117 43.4747 14.4635 47.5184V2.48145Z" fill="#496E2D"/>
<path d="M36.2021 2.48145V47.5184C44.5645 43.4747 50.3326 34.9113 50.3326 24.9999C50.3326 15.0885 44.5645 6.5251 36.2021 2.48145Z" fill="#D80027"/>
</g>
<defs>
<clipPath id="clip0_175_242">
<rect width="50" height="50" fill="white" transform="translate(0.333008)"/>
</clipPath>
</defs>
</svg>
