<svg width="51" height="50" viewBox="0 0 51 50" fill="none" xmlns="http://www.w3.org/2000/svg">
<g clip-path="url(#clip0_175_242)">
<path d="M25.333 50C39.1401 50 50.333 38.8071 50.333 25C50.333 11.1929 39.1401 0 25.333 0C11.5259 0 0.333008 11.1929 0.333008 25C0.333008 38.8071 11.5259 50 25.333 50Z" fill="#D80027"/>
<path d="M40.107 20.5162H28.8205L25.3328 9.78223L21.8451 20.5162H10.5586L19.6896 27.1502L16.2018 37.8845L25.3328 31.2504L34.4639 37.8846L30.9761 27.1503L40.107 20.5162ZM22.2451 26.3198L23.4245 22.69H27.241L28.4205 26.3198V26.3199L25.3328 28.5632L22.2452 26.3199L22.2451 26.3198ZM26.5348 20.5162H24.131L25.3328 16.817L26.5348 20.5162ZM30.2696 24.9764L29.5268 22.6901H33.4163L30.2696 24.9764ZM21.1388 22.6901L20.3959 24.9764L17.2491 22.6901H21.1388ZM20.3368 32.1931L21.5388 28.4939L23.4836 29.9068L20.3368 32.1931ZM27.182 29.9069L29.1269 28.494L30.3288 32.1932L27.182 29.9069Z" fill="#FFDA44"/>
</g>
<defs>
<clipPath id="clip0_175_242">
<rect width="50" height="50" fill="white" transform="translate(0.333008)"/>
</clipPath>
</defs>
</svg>
