<svg width="51" height="50" viewBox="0 0 51 50" fill="none" xmlns="http://www.w3.org/2000/svg">
<g clip-path="url(#clip0_175_242)">
<path d="M25.333 50C39.1401 50 50.333 38.8071 50.333 25C50.333 11.1929 39.1401 0 25.333 0C11.5259 0 0.333008 11.1929 0.333008 25C0.333008 38.8071 11.5259 50 25.333 50Z" fill="#F0F0F0"/>
<path d="M50.3327 24.9997C50.3327 14.2506 43.5483 5.08701 34.0283 1.55469V48.4448C43.5483 44.9124 50.3327 35.7488 50.3327 24.9997V24.9997Z" fill="#D80027"/>
<path d="M0.333008 24.9997C0.333008 35.7488 7.11748 44.9124 16.6374 48.4447V1.55469C7.11748 5.08701 0.333008 14.2506 0.333008 24.9997Z" fill="#0052B4"/>
</g>
<defs>
<clipPath id="clip0_175_242">
<rect width="50" height="50" fill="white" transform="translate(0.333008)"/>
</clipPath>
</defs>
</svg>
