<svg width="51" height="50" viewBox="0 0 51 50" fill="none" xmlns="http://www.w3.org/2000/svg">
<g clip-path="url(#clip0_175_242)">
<path d="M34.029 1.55498C31.3207 0.550098 28.3914 0 25.3334 0C22.2754 0 19.3461 0.550098 16.6378 1.55498L14.4639 25L16.6378 48.445C19.3461 49.45 22.2754 50 25.3334 50C28.3914 50 31.3207 49.45 34.029 48.445L36.2029 25L34.029 1.55498Z" fill="#FFDA44"/>
<path d="M50.3327 24.9996C50.3327 14.2506 43.5483 5.08691 34.0283 1.55469V48.4448C43.5483 44.9123 50.3327 35.7488 50.3327 24.9996V24.9996Z" fill="#D80027"/>
<path d="M0.333008 24.9996C0.333008 35.7488 7.11738 44.9123 16.6374 48.4447V1.55469C7.11738 5.08691 0.333008 14.2506 0.333008 24.9996V24.9996Z" fill="black"/>
</g>
<defs>
<clipPath id="clip0_175_242">
<rect width="50" height="50" fill="white" transform="translate(0.333008)"/>
</clipPath>
</defs>
</svg>
