<svg width="51" height="50" viewBox="0 0 51 50" fill="none" xmlns="http://www.w3.org/2000/svg">
<g clip-path="url(#clip0_175_242)">
<path d="M25.333 50C39.1401 50 50.333 38.8071 50.333 25C50.333 11.1929 39.1401 0 25.333 0C11.5259 0 0.333008 11.1929 0.333008 25C0.333008 38.8071 11.5259 50 25.333 50Z" fill="#F0F0F0"/>
<path d="M25.3327 0C14.5836 0 5.42002 6.78437 1.8877 16.3044H48.7778C45.2454 6.78437 36.0818 0 25.3327 0V0Z" fill="#A2001D"/>
<path d="M25.3327 49.9997C36.0818 49.9997 45.2454 43.2153 48.7777 33.6953H1.8877C5.42002 43.2153 14.5836 49.9997 25.3327 49.9997Z" fill="#0052B4"/>
</g>
<defs>
<clipPath id="clip0_175_242">
<rect width="50" height="50" fill="white" transform="translate(0.333008)"/>
</clipPath>
</defs>
</svg>
