<svg width="51" height="50" viewBox="0 0 51 50" fill="none" xmlns="http://www.w3.org/2000/svg">
<g clip-path="url(#clip0_175_242)">
<path d="M25.333 50C39.1401 50 50.333 38.8071 50.333 25C50.333 11.1929 39.1401 0 25.333 0C11.5259 0 0.333008 11.1929 0.333008 25C0.333008 38.8071 11.5259 50 25.333 50Z" fill="#F0F0F0"/>
<path d="M50.333 25C50.333 38.807 39.14 50 25.333 50C11.526 50 0.333008 38.807 0.333008 25" fill="#496E2D"/>
<path d="M43.5958 17.3972C42.7018 14.8617 40.286 13.0439 37.4447 13.0439H31.8545C28.2526 13.0439 25.3327 15.9639 25.3327 19.5657C25.3327 20.7425 25.646 21.8734 26.1912 22.8266C24.1153 22.8096 22.1941 22.8409 20.9849 22.8266C20.9849 20.3113 20.9849 17.1072 20.9849 16.4368L21.2417 16.18C22.3946 15.0271 22.0102 13.1056 22.0102 13.1056C22.0102 13.1056 20.0889 12.7213 18.9359 13.8742L17.5923 15.2179H16.0936C12.7918 15.2179 10.1153 17.8944 10.1153 21.1961H14.4632V26.0874C14.4632 26.8028 14.6074 27.4844 14.8681 28.1051L13.3762 29.3482H11.2022V27.1743H9.02832V31.5222H18.8109V35.87H16.637V38.0439H20.9849V33.6961L22.9775 31.3048H27.6878L29.6805 33.6961V35.87H27.5065V38.0439H36.2021V26.0873C36.2021 24.2864 37.6621 22.8265 39.463 22.8265C39.5093 22.8265 39.5552 22.8281 39.6011 22.83C39.511 22.4815 39.463 22.1162 39.463 21.7396C39.4632 19.4105 41.2945 17.5094 43.5958 17.3972V17.3972ZM31.8545 35.8699V31.3047H32.0356L34.0283 33.696V35.8699H31.8545Z" fill="#D80027"/>
</g>
<defs>
<clipPath id="clip0_175_242">
<rect width="50" height="50" fill="white" transform="translate(0.333008)"/>
</clipPath>
</defs>
</svg>
