<svg width="51" height="50" viewBox="0 0 51 50" fill="none" xmlns="http://www.w3.org/2000/svg">
<g clip-path="url(#clip0_175_242)">
<path d="M25.333 50C39.1401 50 50.333 38.8071 50.333 25C50.333 11.1929 39.1401 0 25.333 0C11.5259 0 0.333008 11.1929 0.333008 25C0.333008 38.8071 11.5259 50 25.333 50Z" fill="#F0F0F0"/>
<path d="M25.333 18.4778H49.4718C48.8449 16.1522 47.8922 13.9607 46.6637 11.9561H25.333V18.4778Z" fill="#338AF3"/>
<path d="M9.77041 44.5647H40.8947C43.1763 42.7476 45.1329 40.5403 46.6632 38.043H4.00195C5.53232 40.5402 7.48896 42.7476 9.77041 44.5647V44.5647Z" fill="#338AF3"/>
<path d="M25.333 0V5.43477H40.8952C36.6247 2.03359 31.2167 0 25.333 0V0Z" fill="#338AF3"/>
<path d="M25.333 18.4778H49.4718C48.8449 16.1522 47.8922 13.9607 46.6637 11.9561H25.333V18.4778Z" fill="#338AF3"/>
<path d="M0.333008 25C0.333008 27.2565 0.633789 29.4423 1.19424 31.5218H49.4719C50.0322 29.4423 50.333 27.2565 50.333 25H0.333008Z" fill="#338AF3"/>
<path d="M22.0723 14.6314L19.0189 16.0677L20.6448 19.0247L17.3294 18.3905L16.9093 21.7396L14.6001 19.2764L12.2907 21.7396L11.8707 18.3905L8.55527 19.0245L10.1811 16.0676L7.12793 14.6314L10.1812 13.1954L8.55527 10.2384L11.8706 10.8726L12.2908 7.52344L14.6001 9.98672L16.9094 7.52344L17.3294 10.8726L20.6449 10.2384L19.019 13.1955L22.0723 14.6314Z" fill="#FFDA44"/>
</g>
<defs>
<clipPath id="clip0_175_242">
<rect width="50" height="50" fill="white" transform="translate(0.333008)"/>
</clipPath>
</defs>
</svg>
