<svg width="51" height="50" viewBox="0 0 51 50" fill="none" xmlns="http://www.w3.org/2000/svg">
<g clip-path="url(#clip0_175_242)">
<path d="M25.333 50C39.1401 50 50.333 38.8071 50.333 25C50.333 11.1929 39.1401 0 25.333 0C11.5259 0 0.333008 11.1929 0.333008 25C0.333008 38.8071 11.5259 50 25.333 50Z" fill="#D80027"/>
<path d="M25.3335 36.9561C31.9369 36.9561 37.29 31.6029 37.29 24.9995C37.29 18.3961 31.9369 13.043 25.3335 13.043C18.7301 13.043 13.377 18.3961 13.377 24.9995C13.377 31.6029 18.7301 36.9561 25.3335 36.9561Z" fill="#F0F0F0"/>
<path d="M26.8066 20.4287L28.8578 23.2554L32.1798 22.1782L30.1254 25.0024L32.1764 27.829L28.8555 26.7478L26.8011 29.572L26.8032 26.0797L23.4824 24.9984L26.8045 23.9213L26.8066 20.4287Z" fill="#D80027"/>
<path d="M28.0507 32.0656C24.1487 32.0656 20.9854 28.9023 20.9854 25.0004C20.9854 21.0984 24.1487 17.9352 28.0507 17.9352C29.2673 17.9352 30.4121 18.2428 31.4115 18.7844C29.8437 17.2511 27.6996 16.3047 25.3333 16.3047C20.531 16.3047 16.6377 20.1979 16.6377 25.0003C16.6377 29.8027 20.531 33.6959 25.3333 33.6959C27.6996 33.6959 29.8438 32.7495 31.4115 31.2162C30.4121 31.758 29.2673 32.0656 28.0507 32.0656Z" fill="#D80027"/>
</g>
<defs>
<clipPath id="clip0_175_242">
<rect width="50" height="50" fill="white" transform="translate(0.333008)"/>
</clipPath>
</defs>
</svg>
