<svg width="51" height="50" viewBox="0 0 51 50" fill="none" xmlns="http://www.w3.org/2000/svg">
<g clip-path="url(#clip0_175_242)">
<path d="M25.333 50C39.1401 50 50.333 38.8071 50.333 25C50.333 11.1929 39.1401 0 25.333 0C11.5259 0 0.333008 11.1929 0.333008 25C0.333008 38.8071 11.5259 50 25.333 50Z" fill="#F0F0F0"/>
<path d="M24.2461 25.0003H50.333C50.333 22.7438 50.0322 20.5579 49.4718 18.4785H24.2461V25.0003Z" fill="#D80027"/>
<path d="M24.2461 11.9563H46.6637C45.1333 9.45908 43.1766 7.25176 40.8951 5.43457H24.2461V11.9563Z" fill="#D80027"/>
<path d="M25.3326 50.0002C31.2163 50.0002 36.6242 47.9666 40.8947 44.5654H9.77051C14.041 47.9666 19.4489 50.0002 25.3326 50.0002Z" fill="#D80027"/>
<path d="M4.00244 38.0433H46.6638C47.8924 36.0385 48.8452 33.8471 49.4719 31.5215H1.19434C1.821 33.8471 2.77383 36.0385 4.00244 38.0433V38.0433Z" fill="#D80027"/>
<path d="M11.9135 3.9041H14.1917L12.0726 5.44365L12.882 7.93477L10.763 6.39521L8.64394 7.93477L9.34316 5.78271C7.47734 7.33691 5.84199 9.15781 4.49434 11.1867H5.22432L3.87539 12.1667C3.66523 12.5173 3.46367 12.8734 3.27051 13.2349L3.91465 15.2174L2.71289 14.3442C2.41416 14.9771 2.14092 15.6243 1.89531 16.285L2.60498 18.4693H5.22432L3.10518 20.0089L3.91465 22.5L1.79561 20.9604L0.52627 21.8827C0.399219 22.904 0.333008 23.9442 0.333008 25H25.333C25.333 11.193 25.333 9.56523 25.333 0C20.3943 0 15.7905 1.43262 11.9135 3.9041V3.9041ZM12.882 22.5L10.763 20.9604L8.64394 22.5L9.45342 20.0089L7.33428 18.4693H9.95361L10.763 15.9782L11.5724 18.4693H14.1917L12.0726 20.0089L12.882 22.5ZM12.0726 12.7263L12.882 15.2174L10.763 13.6778L8.64394 15.2174L9.45342 12.7263L7.33428 11.1867H9.95361L10.763 8.69561L11.5724 11.1867H14.1917L12.0726 12.7263ZM21.8494 22.5L19.7304 20.9604L17.6113 22.5L18.4208 20.0089L16.3017 18.4693H18.921L19.7304 15.9782L20.5397 18.4693H23.1591L21.0399 20.0089L21.8494 22.5ZM21.0399 12.7263L21.8494 15.2174L19.7304 13.6778L17.6113 15.2174L18.4208 12.7263L16.3017 11.1867H18.921L19.7304 8.69561L20.5397 11.1867H23.1591L21.0399 12.7263ZM21.0399 5.44365L21.8494 7.93477L19.7304 6.39521L17.6113 7.93477L18.4208 5.44365L16.3017 3.9041H18.921L19.7304 1.41299L20.5397 3.9041H23.1591L21.0399 5.44365Z" fill="#0052B4"/>
</g>
<defs>
<clipPath id="clip0_175_242">
<rect width="50" height="50" fill="white" transform="translate(0.333008)"/>
</clipPath>
</defs>
</svg>
