<svg width="51" height="50" viewBox="0 0 51 50" fill="none" xmlns="http://www.w3.org/2000/svg">
<g clip-path="url(#clip0_175_242)">
<path d="M25.333 50C39.1401 50 50.333 38.8071 50.333 25C50.333 11.1929 39.1401 0 25.333 0C11.5259 0 0.333008 11.1929 0.333008 25C0.333008 38.8071 11.5259 50 25.333 50Z" fill="#F0F0F0"/>
<path d="M34.0289 25.0003C34.0289 27.1742 30.1357 32.609 25.3333 32.609C20.5309 32.609 16.6377 27.1742 16.6377 25.0003C16.6377 20.1978 20.5309 16.3047 25.3333 16.3047C30.1357 16.3047 34.0289 20.1978 34.0289 25.0003Z" fill="#D80027"/>
<path d="M34.0289 25C34.0289 29.8025 30.1357 33.6956 25.3333 33.6956C20.5309 33.6956 16.6377 29.8025 16.6377 25" fill="#0052B4"/>
<path d="M34.5488 32.6865L36.8542 30.3811L38.3912 31.9181L36.0858 34.2235L34.5488 32.6865Z" fill="black"/>
<path d="M30.7061 36.5293L33.0115 34.2239L34.5484 35.7609L32.243 38.0663L30.7061 36.5293Z" fill="black"/>
<path d="M39.1602 37.2969L41.4656 34.9915L43.0025 36.5284L40.6971 38.8338L39.1602 37.2969Z" fill="black"/>
<path d="M35.3174 41.1396L37.6228 38.8342L39.1598 40.3712L36.8543 42.6766L35.3174 41.1396Z" fill="black"/>
<path d="M36.8545 34.9922L39.1599 32.6868L40.6969 34.2237L38.3915 36.5292L36.8545 34.9922Z" fill="black"/>
<path d="M33.0127 38.834L35.3181 36.5286L36.8551 38.0655L34.5497 40.371L33.0127 38.834Z" fill="black"/>
<path d="M39.1709 17.3184L33.0231 11.1706L34.5601 9.6336L40.7079 15.7814L39.1709 17.3184Z" fill="black"/>
<path d="M33.0215 15.7812L30.7161 13.4758L32.253 11.9389L34.5584 14.2444L33.0215 15.7812Z" fill="black"/>
<path d="M36.8643 19.625L34.5588 17.3196L36.0957 15.7827L38.4012 18.0881L36.8643 19.625Z" fill="black"/>
<path d="M37.6318 11.1699L35.3264 8.86451L36.8634 7.32754L39.1688 9.63296L37.6318 11.1699Z" fill="black"/>
<path d="M41.4766 15.0137L39.1711 12.7083L40.7081 11.1713L43.0135 13.4767L41.4766 15.0137Z" fill="black"/>
<path d="M9.19531 34.9873L15.3431 41.1351L13.8061 42.6721L7.65835 36.5243L9.19531 34.9873Z" fill="black"/>
<path d="M15.3428 36.5234L17.6482 38.8289L16.1113 40.3657L13.8059 38.0603L15.3428 36.5234Z" fill="black"/>
<path d="M11.501 32.6816L13.8064 34.9871L12.2694 36.524L9.96401 34.2186L11.501 32.6816Z" fill="black"/>
<path d="M13.8066 30.376L19.9544 36.5238L18.4175 38.0607L12.2697 31.9129L13.8066 30.376Z" fill="black"/>
<path d="M15.3428 8.85938L9.19498 15.0072L7.65802 13.4702L13.8058 7.32241L15.3428 8.85938Z" fill="black"/>
<path d="M17.6484 11.165L11.5006 17.3128L9.96368 15.7759L16.1115 9.62807L17.6484 11.165Z" fill="black"/>
<path d="M19.9561 13.4717L13.8083 19.6195L12.2714 18.0826L18.4192 11.9348L19.9561 13.4717Z" fill="black"/>
</g>
<defs>
<clipPath id="clip0_175_242">
<rect width="50" height="50" fill="white" transform="translate(0.333008)"/>
</clipPath>
</defs>
</svg>
