<svg width="51" height="50" viewBox="0 0 51 50" fill="none" xmlns="http://www.w3.org/2000/svg">
<g clip-path="url(#clip0_175_242)">
<path d="M1.8877 33.6953C5.42002 43.2152 14.5836 49.9997 25.3327 49.9997C36.0818 49.9997 45.2454 43.2152 48.7777 33.6953L25.3327 31.5215L1.8877 33.6953Z" fill="#FFDA44"/>
<path d="M25.3327 0C14.5836 0 5.42002 6.78438 1.8877 16.3044L25.3327 18.4782L48.7777 16.3043C45.2454 6.78437 36.0818 0 25.3327 0Z" fill="black"/>
<path d="M1.88799 16.3047C0.883106 19.013 0.333008 21.9423 0.333008 25.0003C0.333008 28.0583 0.883106 30.9876 1.88799 33.6959H48.7781C49.783 30.9876 50.333 28.0583 50.333 25.0003C50.333 21.9423 49.783 19.013 48.778 16.3047H1.88799Z" fill="#D80027"/>
</g>
<defs>
<clipPath id="clip0_175_242">
<rect width="50" height="50" fill="white" transform="translate(0.333008)"/>
</clipPath>
</defs>
</svg>
