<svg width="51" height="50" viewBox="0 0 51 50" fill="none" xmlns="http://www.w3.org/2000/svg">
<g clip-path="url(#clip0_175_242)">
<path d="M0.333008 25.0004C0.333008 28.0584 0.883106 30.9877 1.88799 33.696L25.333 34.783L48.778 33.6961C49.783 30.9877 50.333 28.0584 50.333 25.0004C50.333 21.9424 49.783 19.0131 48.778 16.3048L25.333 15.2178L1.88799 16.3047C0.883106 19.0131 0.333008 21.9424 0.333008 25.0004H0.333008Z" fill="#FFDA44"/>
<path d="M25.3327 0C14.5836 0 5.42002 6.78437 1.8877 16.3044H48.7778C45.2454 6.78437 36.0818 0 25.3327 0V0Z" fill="#D80027"/>
<path d="M48.7777 33.6953H1.8877C5.42002 43.2152 14.5836 49.9997 25.3327 49.9997C36.0818 49.9997 45.2454 43.2152 48.7777 33.6953Z" fill="#496E2D"/>
<path d="M25.3324 16.3047L27.4906 22.9473H34.4758L28.8251 27.053L30.9833 33.6959L25.3324 29.5904L19.6815 33.6959L21.8401 27.053L16.1895 22.9473H23.1742L25.3324 16.3047Z" fill="black"/>
</g>
<defs>
<clipPath id="clip0_175_242">
<rect width="50" height="50" fill="white" transform="translate(0.333008)"/>
</clipPath>
</defs>
</svg>
