<svg width="51" height="50" viewBox="0 0 51 50" fill="none" xmlns="http://www.w3.org/2000/svg">
<g clip-path="url(#clip0_175_242)">
<path d="M50.333 25C50.333 38.807 39.14 50 25.333 50C11.526 50 0.333008 38.807 0.333008 25C0.333008 25.0059 25.333 0.00283203 25.333 0C39.14 0 50.333 11.193 50.333 25Z" fill="#0052B4"/>
<path d="M25.2656 25.0005H25.3325C25.3325 24.9778 25.3325 24.9562 25.3325 24.9336C25.3103 24.956 25.288 24.9782 25.2656 25.0005Z" fill="#F0F0F0"/>
<path d="M25.333 13.0435C25.333 8.64453 25.333 5.76201 25.333 0H25.3288C11.5236 0.00224609 0.333008 11.1941 0.333008 24.9999H13.3765V17.655L20.7214 24.9999H25.2662C25.2886 24.9776 25.3108 24.9554 25.3331 24.933C25.3331 23.2487 25.3331 21.7459 25.3331 20.3885L17.9881 13.0435H25.333Z" fill="#F0F0F0"/>
<path d="M12.9809 3.26074C9.0708 5.48721 5.82021 8.73779 3.59375 12.6479V24.9999H10.1155V9.78262V9.78252H25.3329C25.3329 7.72559 25.3329 5.76602 25.3329 3.26074H12.9809Z" fill="#D80027"/>
<path d="M25.3334 21.926L16.4513 13.044H13.377C13.377 13.0439 13.377 13.044 13.377 13.044L25.3333 25.0003H25.3334C25.3334 25.0003 25.3334 22.8807 25.3334 21.926Z" fill="#D80027"/>
<path d="M15.4104 29.3477L16.7825 32.2166L19.8809 31.5005L18.4934 34.362L20.985 36.3379L17.8827 37.0371L17.8914 40.2172L15.4104 38.2276L12.9296 40.2172L12.9383 37.0371L9.83594 36.3379L12.3276 34.362L10.9399 31.5005L14.0385 32.2166L15.4104 29.3477Z" fill="#F0F0F0"/>
<path d="M37.7628 34.7822L38.4488 36.2167L39.998 35.8586L39.3042 37.2894L40.5501 38.2773L38.9989 38.627L39.0032 40.217L37.7628 39.2222L36.5224 40.217L36.5267 38.627L34.9756 38.2773L36.2214 37.2894L35.5276 35.8586L37.0768 36.2167L37.7628 34.7822Z" fill="#F0F0F0"/>
<path d="M31.3811 19.5645L32.067 20.999L33.6162 20.6408L32.9225 22.0716L34.1683 23.0596L32.6172 23.4092L32.6214 24.9992L31.3811 24.0044L30.1406 24.9992L30.1448 23.4092L28.5938 23.0596L29.8396 22.0716L29.1458 20.6408L30.695 20.999L31.3811 19.5645Z" fill="#F0F0F0"/>
<path d="M37.7628 10.8691L38.4488 12.3037L39.998 11.9456L39.3043 13.3764L40.55 14.3643L38.9989 14.714L39.0032 16.304L37.7628 15.3092L36.5224 16.304L36.5267 14.714L34.9756 14.3643L36.2213 13.3764L35.5276 11.9456L37.0768 12.3037L37.7628 10.8691Z" fill="#F0F0F0"/>
<path d="M43.3371 17.3906L44.023 18.8252L45.5723 18.467L44.8785 19.8978L46.1243 20.8857L44.5731 21.2354L44.5774 22.8254L43.3371 21.8307L42.0967 22.8254L42.1009 21.2354L40.5498 20.8857L41.7956 19.8978L41.1019 18.467L42.651 18.8252L43.3371 17.3906Z" fill="#F0F0F0"/>
<path d="M39.3513 25L39.8908 26.6607H41.6371L40.2243 27.6872L40.7641 29.3479L39.3513 28.3215L37.9386 29.3479L38.4781 27.6872L37.0654 26.6607H38.8116L39.3513 25Z" fill="#F0F0F0"/>
</g>
<defs>
<clipPath id="clip0_175_242">
<rect width="50" height="50" fill="white" transform="translate(0.333008)"/>
</clipPath>
</defs>
</svg>
