<svg width="51" height="50" viewBox="0 0 51 50" fill="none" xmlns="http://www.w3.org/2000/svg">
<g clip-path="url(#clip0_175_242)">
<path d="M0.333008 24.9997C0.333008 35.7487 7.11738 44.9123 16.6372 48.4446L18.8112 24.9996L16.6372 1.55469C7.11738 5.08711 0.333008 14.2506 0.333008 24.9997Z" fill="#6DA544"/>
<path d="M50.3325 25C50.3325 11.193 39.1396 0 25.3325 0C22.2745 0 19.3451 0.550098 16.6367 1.55498V48.445C19.3451 49.45 22.2745 50 25.3325 50C39.1396 50 50.3325 38.807 50.3325 25Z" fill="#D80027"/>
<path d="M16.637 33.6959C21.4395 33.6959 25.3326 29.8027 25.3326 25.0003C25.3326 20.1978 21.4395 16.3047 16.637 16.3047C11.8346 16.3047 7.94141 20.1978 7.94141 25.0003C7.94141 29.8027 11.8346 33.6959 16.637 33.6959Z" fill="#FFDA44"/>
<path d="M11.7461 20.6523V26.0871C11.7461 28.7885 13.9359 30.9784 16.6374 30.9784C19.3389 30.9784 21.5287 28.7886 21.5287 26.0871V20.6523H11.7461Z" fill="#D80027"/>
<path d="M16.6373 27.7174C15.7383 27.7174 15.0068 26.9859 15.0068 26.0869V23.9131H18.2677V26.087C18.2677 26.9859 17.5362 27.7174 16.6373 27.7174Z" fill="#F0F0F0"/>
</g>
<defs>
<clipPath id="clip0_175_242">
<rect width="50" height="50" fill="white" transform="translate(0.333008)"/>
</clipPath>
</defs>
</svg>
