<svg width="51" height="50" viewBox="0 0 51 50" fill="none" xmlns="http://www.w3.org/2000/svg">
<g clip-path="url(#clip0_175_242)">
<path d="M25.333 50C39.1401 50 50.333 38.8071 50.333 25C50.333 11.1929 39.1401 0 25.333 0C11.5259 0 0.333008 11.1929 0.333008 25C0.333008 38.8071 11.5259 50 25.333 50Z" fill="#F0F0F0"/>
<path d="M25.3328 0C15.4213 0 6.85723 5.76807 2.81348 14.1305H47.8521C43.8084 5.76807 35.2442 0 25.3328 0V0Z" fill="#338AF3"/>
<path d="M25.3328 49.9996C35.2442 49.9996 43.8084 44.2315 47.8521 35.8691H2.81348C6.85723 44.2315 15.4213 49.9996 25.3328 49.9996Z" fill="#338AF3"/>
<path d="M32.8057 24.9997L29.7524 26.4359L31.3783 29.3929L28.0629 28.7586L27.6428 32.1078L25.3335 29.6445L23.0241 32.1078L22.6041 28.7586L19.2887 29.3928L20.9145 26.4358L17.8613 24.9997L20.9146 23.5635L19.2887 20.6066L22.604 21.2408L23.0242 17.8916L25.3335 20.3549L27.6429 17.8916L28.0629 21.2408L31.3784 20.6066L29.7525 23.5636L32.8057 24.9997Z" fill="#FFDA44"/>
</g>
<defs>
<clipPath id="clip0_175_242">
<rect width="50" height="50" fill="white" transform="translate(0.333008)"/>
</clipPath>
</defs>
</svg>
