<svg width="51" height="50" viewBox="0 0 51 50" fill="none" xmlns="http://www.w3.org/2000/svg">
<g clip-path="url(#clip0_175_242)">
<path d="M25.333 50C39.1401 50 50.333 38.8071 50.333 25C50.333 11.1929 39.1401 0 25.333 0C11.5259 0 0.333008 11.1929 0.333008 25C0.333008 38.8071 11.5259 50 25.333 50Z" fill="#F0F0F0"/>
<path d="M50.3326 24.9998C50.3326 15.0883 44.5646 6.52422 36.2021 2.48047V47.519C44.5646 43.4754 50.3326 34.9113 50.3326 24.9998V24.9998Z" fill="#D80027"/>
<path d="M0.333008 24.9998C0.333008 34.9113 6.10107 43.4754 14.4635 47.5191V2.48047C6.10107 6.52422 0.333008 15.0883 0.333008 24.9998Z" fill="#D80027"/>
<path d="M29.6812 28.2602L34.0289 26.0862L31.8551 24.9993V22.8254L27.5072 24.9993L29.6812 20.6515H27.5072L25.3333 17.3906L23.1594 20.6515H20.9854L23.1594 24.9993L18.8115 22.8254V24.9993L16.6377 26.0862L20.9854 28.2602L19.8985 30.4341H24.2464V33.6949H26.4202V30.4341H30.7681L29.6812 28.2602Z" fill="#D80027"/>
</g>
<defs>
<clipPath id="clip0_175_242">
<rect width="50" height="50" fill="white" transform="translate(0.333008)"/>
</clipPath>
</defs>
</svg>
