<svg width="51" height="50" viewBox="0 0 51 50" fill="none" xmlns="http://www.w3.org/2000/svg">
<g clip-path="url(#clip0_175_242)">
<path d="M25.333 50C39.1401 50 50.333 38.8071 50.333 25C50.333 11.1929 39.1401 0 25.333 0C11.5259 0 0.333008 11.1929 0.333008 25C0.333008 38.8071 11.5259 50 25.333 50Z" fill="#F0F0F0"/>
<path d="M50.1214 21.7392H28.594H28.5939V0.211621C27.5265 0.0726563 26.4382 0 25.333 0C24.2278 0 23.1396 0.0726563 22.0722 0.211621V21.739V21.7391H0.544629C0.405664 22.8065 0.333008 23.8946 0.333008 25C0.333008 26.1054 0.405664 27.1935 0.544629 28.2608H22.072H22.0721V49.7884C23.1396 49.9273 24.2278 50 25.333 50C26.4382 50 27.5265 49.9274 28.5938 49.7884V28.261V28.2609H50.1214C50.2604 27.1935 50.333 26.1054 50.333 25C50.333 23.8946 50.2604 22.8065 50.1214 21.7392V21.7392Z" fill="#D80027"/>
</g>
<defs>
<clipPath id="clip0_175_242">
<rect width="50" height="50" fill="white" transform="translate(0.333008)"/>
</clipPath>
</defs>
</svg>
