<svg width="51" height="50" viewBox="0 0 51 50" fill="none" xmlns="http://www.w3.org/2000/svg">
<g clip-path="url(#clip0_175_242)">
<path d="M25.333 50C39.1401 50 50.333 38.8071 50.333 25C50.333 11.1929 39.1401 0 25.333 0C11.5259 0 0.333008 11.1929 0.333008 25C0.333008 38.8071 11.5259 50 25.333 50Z" fill="#6DA544"/>
<path d="M25.3328 9.78223L45.985 24.9996L25.3328 40.217L4.68066 24.9996L25.3328 9.78223Z" fill="#FFDA44"/>
<path d="M25.3333 33.6959C30.1358 33.6959 34.0289 29.8027 34.0289 25.0003C34.0289 20.1978 30.1358 16.3047 25.3333 16.3047C20.5309 16.3047 16.6377 20.1978 16.6377 25.0003C16.6377 29.8027 20.5309 33.6959 25.3333 33.6959Z" fill="#F0F0F0"/>
<path d="M20.9856 24.457C19.4735 24.457 18.0143 24.687 16.6406 25.1138C16.7015 29.8638 20.569 33.6962 25.3335 33.6962C28.2796 33.6962 30.8815 32.2297 32.4545 29.9884C29.7634 26.6195 25.6227 24.457 20.9856 24.457V24.457Z" fill="#0052B4"/>
<path d="M33.868 26.6663C33.9727 26.1269 34.0292 25.5703 34.0292 25.0003C34.0292 20.1978 30.136 16.3047 25.3336 16.3047C21.7502 16.3047 18.674 18.4728 17.3428 21.5683C18.5195 21.3244 19.7379 21.196 20.9858 21.196C26.0363 21.1959 30.6053 23.2953 33.868 26.6663V26.6663Z" fill="#0052B4"/>
</g>
<defs>
<clipPath id="clip0_175_242">
<rect width="50" height="50" fill="white" transform="translate(0.333008)"/>
</clipPath>
</defs>
</svg>
