<svg width="51" height="50" viewBox="0 0 51 50" fill="none" xmlns="http://www.w3.org/2000/svg">
<g clip-path="url(#clip0_175_242)">
<path d="M25.333 50C39.1401 50 50.333 38.8071 50.333 25C50.333 11.1929 39.1401 0 25.333 0C11.5259 0 0.333008 11.1929 0.333008 25C0.333008 38.8071 11.5259 50 25.333 50Z" fill="#F0F0F0"/>
<path d="M48.778 16.3047H1.88799C0.883106 19.013 0.333008 21.9423 0.333008 25.0003C0.333008 28.0583 0.883106 30.9876 1.88799 33.6959H48.7781C49.783 30.9876 50.333 28.0583 50.333 25.0003C50.333 21.9423 49.783 19.013 48.778 16.3047Z" fill="#D80027"/>
<path d="M25.3331 0C17.7559 0 10.9665 3.37148 6.38184 8.69561H44.2843C39.6997 3.37148 32.9104 0 25.3331 0V0Z" fill="#0052B4"/>
<path d="M44.2844 41.3047H6.38184C10.9665 46.6288 17.7559 50.0003 25.3331 50.0003C32.9104 50.0003 39.6997 46.6288 44.2844 41.3047Z" fill="#0052B4"/>
</g>
<defs>
<clipPath id="clip0_175_242">
<rect width="50" height="50" fill="white" transform="translate(0.333008)"/>
</clipPath>
</defs>
</svg>
