<svg width="51" height="50" viewBox="0 0 51 50" fill="none" xmlns="http://www.w3.org/2000/svg">
<g clip-path="url(#clip0_175_242)">
<path d="M25.333 50C39.1401 50 50.333 38.8071 50.333 25C50.333 11.1929 39.1401 0 25.333 0C11.5259 0 0.333008 11.1929 0.333008 25C0.333008 38.8071 11.5259 50 25.333 50Z" fill="#F0F0F0"/>
<path d="M50.3326 24.9998C50.3326 15.0883 44.5646 6.52422 36.2021 2.48047V47.519C44.5646 43.4754 50.3326 34.9113 50.3326 24.9998V24.9998Z" fill="#D80027"/>
<path d="M0.333008 24.9998C0.333008 34.9113 6.10107 43.4754 14.4635 47.5191V2.48047C6.10107 6.52422 0.333008 15.0883 0.333008 24.9998Z" fill="#6DA544"/>
<path d="M18.8115 25.0001C18.8115 28.602 21.7314 31.5219 25.3333 31.5219C28.9352 31.5219 31.8551 28.602 31.8551 25.0001V22.8262H18.8115V25.0001Z" fill="#6DA544"/>
<path d="M34.0281 20.6524H27.5063C27.5063 19.4519 26.533 18.4785 25.3324 18.4785C24.1318 18.4785 23.1585 19.4519 23.1585 20.6524H16.6367C16.6367 21.8531 17.6825 22.8264 18.883 22.8264H18.8106C18.8106 24.0271 19.7839 25.0003 20.9846 25.0003C20.9846 26.201 21.9578 27.1742 23.1585 27.1742H27.5063C28.707 27.1742 29.6803 26.201 29.6803 25.0003C30.881 25.0003 31.8542 24.0271 31.8542 22.8264H31.7817C32.9824 22.8264 34.0281 21.8531 34.0281 20.6524Z" fill="#FF9811"/>
</g>
<defs>
<clipPath id="clip0_175_242">
<rect width="50" height="50" fill="white" transform="translate(0.333008)"/>
</clipPath>
</defs>
</svg>
