<svg width="51" height="50" viewBox="0 0 51 50" fill="none" xmlns="http://www.w3.org/2000/svg">
<g clip-path="url(#clip0_175_242)">
<path d="M25.333 50C39.1401 50 50.333 38.8071 50.333 25C50.333 11.1929 39.1401 0 25.333 0C11.5259 0 0.333008 11.1929 0.333008 25C0.333008 38.8071 11.5259 50 25.333 50Z" fill="#F0F0F0"/>
<path d="M25.333 0C11.526 0 0.333008 11.193 0.333008 25C0.333008 28.058 0.883106 30.9874 1.88799 33.6956H48.7781C49.783 30.9874 50.333 28.058 50.333 25C50.333 11.193 39.14 0 25.333 0Z" fill="#0052B4"/>
<path d="M25.3327 0C14.5836 0 5.42002 6.78437 1.8877 16.3044H48.7778C45.2454 6.78437 36.0818 0 25.3327 0V0Z" fill="#D80027"/>
<path d="M6.79688 14.1309V26.6022C6.79688 33.6963 16.0646 35.87 16.0646 35.87C16.0646 35.87 25.3321 33.6963 25.3321 26.6022V14.1309H6.79688Z" fill="#D80027"/>
<path d="M10.6299 16.304H21.4995V11.9562L19.3256 13.0431L16.0647 9.78223L12.8038 13.0431L10.6299 11.9562V16.304Z" fill="#FFDA44"/>
<path d="M23.1588 28.3377L16.0936 21.2725L9.02832 28.3377L11.3341 30.6435L16.0936 25.884L20.853 30.6435L23.1588 28.3377Z" fill="#FFDA44"/>
<path d="M23.1588 21.7392H19.8623C20.0477 21.4192 20.1555 21.0487 20.1555 20.6524C20.1555 19.4517 19.1821 18.4785 17.9815 18.4785C17.152 18.4785 16.4315 18.9432 16.065 19.6263C15.6985 18.9433 14.9781 18.4785 14.1485 18.4785C12.9479 18.4785 11.9746 19.4517 11.9746 20.6524C11.9746 21.0487 12.0824 21.4193 12.2678 21.7392H9.02832C9.02832 22.9398 10.0741 23.9131 11.2746 23.9131H11.2022C11.2022 25.1138 12.1755 26.087 13.3762 26.087C13.3762 27.1501 14.1396 28.0333 15.1479 28.2224L13.4351 32.0897C14.256 32.4234 15.153 32.6088 16.0937 32.6088C17.0343 32.6088 17.9313 32.4234 18.7522 32.0897L17.0394 28.2224C18.0477 28.0335 18.8111 27.1502 18.8111 26.087C20.0118 26.087 20.9851 25.1138 20.9851 23.9131H20.9127C22.1131 23.9131 23.1588 22.9397 23.1588 21.7392V21.7392Z" fill="#F0F0F0"/>
</g>
<defs>
<clipPath id="clip0_175_242">
<rect width="50" height="50" fill="white" transform="translate(0.333008)"/>
</clipPath>
</defs>
</svg>
